<mxfile host="Electron" modified="2024-01-25T12:49:42.746Z" agent="Mozilla/5.0 (Windows NT 10.0; Win64; x64) AppleWebKit/537.36 (KHTML, like Gecko) draw.io/22.1.16 Chrome/120.0.6099.109 Electron/28.1.0 Safari/537.36" etag="yrtTHLTxfLn0LIWQFNNw" version="22.1.16" type="device">
  <diagram name="Page-1" id="-Xb0-7vqPZWTRasUV0mi">
    <mxGraphModel dx="1889" dy="625" grid="1" gridSize="10" guides="1" tooltips="1" connect="1" arrows="1" fold="1" page="1" pageScale="1" pageWidth="827" pageHeight="1169" math="0" shadow="0">
      <root>
        <mxCell id="0" />
        <mxCell id="1" parent="0" />
        <mxCell id="ZmOYrqovJdzRs6UnG-Y0-1" value="" style="ellipse;whiteSpace=wrap;html=1;aspect=fixed;movable=0;resizable=0;rotatable=0;deletable=0;editable=0;locked=1;connectable=0;fillColor=none;dashed=1;" parent="1" vertex="1">
          <mxGeometry x="40" y="40" width="500" height="500" as="geometry" />
        </mxCell>
        <mxCell id="ZmOYrqovJdzRs6UnG-Y0-2" value="S&lt;sub&gt;1&lt;/sub&gt;" style="ellipse;whiteSpace=wrap;html=1;aspect=fixed;fontSize=27;fontStyle=1;movable=1;resizable=1;rotatable=1;deletable=1;editable=1;locked=0;connectable=1;" parent="1" vertex="1">
          <mxGeometry x="250" y="240" width="80" height="80" as="geometry" />
        </mxCell>
        <mxCell id="ZmOYrqovJdzRs6UnG-Y0-3" value="r&lt;sub&gt;1&lt;/sub&gt;" style="ellipse;whiteSpace=wrap;html=1;aspect=fixed;fontSize=27;fontStyle=1;movable=1;resizable=1;rotatable=1;deletable=1;editable=1;locked=0;connectable=1;" parent="1" vertex="1">
          <mxGeometry x="360" y="120" width="80" height="80" as="geometry" />
        </mxCell>
        <mxCell id="ZmOYrqovJdzRs6UnG-Y0-5" value="r&lt;span style=&quot;font-size: 22.5px;&quot;&gt;&lt;sub&gt;3&lt;/sub&gt;&lt;/span&gt;" style="ellipse;whiteSpace=wrap;html=1;aspect=fixed;fontSize=27;fontStyle=1;movable=1;resizable=1;rotatable=1;deletable=1;editable=1;locked=0;connectable=1;" parent="1" vertex="1">
          <mxGeometry x="80" y="240" width="80" height="80" as="geometry" />
        </mxCell>
        <mxCell id="ZmOYrqovJdzRs6UnG-Y0-6" value="" style="ellipse;whiteSpace=wrap;html=1;aspect=fixed;fillColor=none;dashed=1;" parent="1" vertex="1">
          <mxGeometry x="580" y="340" width="200" height="200" as="geometry" />
        </mxCell>
        <mxCell id="ZmOYrqovJdzRs6UnG-Y0-7" value="S&lt;sub&gt;3&lt;/sub&gt;" style="ellipse;whiteSpace=wrap;html=1;aspect=fixed;fontStyle=1" parent="1" vertex="1">
          <mxGeometry x="660" y="420" width="40" height="40" as="geometry" />
        </mxCell>
        <mxCell id="ZmOYrqovJdzRs6UnG-Y0-9" value="" style="ellipse;whiteSpace=wrap;html=1;aspect=fixed;" parent="1" vertex="1">
          <mxGeometry x="620" y="370" width="40" height="40" as="geometry" />
        </mxCell>
        <mxCell id="ZmOYrqovJdzRs6UnG-Y0-10" value="" style="ellipse;whiteSpace=wrap;html=1;aspect=fixed;" parent="1" vertex="1">
          <mxGeometry x="710" y="380" width="40" height="40" as="geometry" />
        </mxCell>
        <mxCell id="ZmOYrqovJdzRs6UnG-Y0-14" value="" style="ellipse;whiteSpace=wrap;html=1;aspect=fixed;fillColor=none;dashed=1;movable=0;resizable=0;rotatable=0;deletable=0;editable=0;locked=1;connectable=0;" parent="1" vertex="1">
          <mxGeometry x="-220" y="220" width="200" height="200" as="geometry" />
        </mxCell>
        <mxCell id="ZmOYrqovJdzRs6UnG-Y0-15" value="S&lt;sub&gt;2&lt;/sub&gt;" style="ellipse;whiteSpace=wrap;html=1;aspect=fixed;fontStyle=1" parent="1" vertex="1">
          <mxGeometry x="-140" y="300" width="40" height="40" as="geometry" />
        </mxCell>
        <mxCell id="ZmOYrqovJdzRs6UnG-Y0-16" value="" style="ellipse;whiteSpace=wrap;html=1;aspect=fixed;" parent="1" vertex="1">
          <mxGeometry x="-170" y="360" width="40" height="40" as="geometry" />
        </mxCell>
        <mxCell id="ZmOYrqovJdzRs6UnG-Y0-17" value="" style="ellipse;whiteSpace=wrap;html=1;aspect=fixed;" parent="1" vertex="1">
          <mxGeometry x="-180" y="250" width="40" height="40" as="geometry" />
        </mxCell>
        <mxCell id="ZmOYrqovJdzRs6UnG-Y0-18" value="" style="ellipse;whiteSpace=wrap;html=1;aspect=fixed;" parent="1" vertex="1">
          <mxGeometry x="-90" y="260" width="40" height="40" as="geometry" />
        </mxCell>
        <mxCell id="ZmOYrqovJdzRs6UnG-Y0-19" value="" style="endArrow=classic;html=1;rounded=0;exitX=1;exitY=0.5;exitDx=0;exitDy=0;entryX=0;entryY=0.5;entryDx=0;entryDy=0;dashed=1;strokeWidth=2;dashPattern=8 8;" parent="1" source="ZmOYrqovJdzRs6UnG-Y0-18" target="ZmOYrqovJdzRs6UnG-Y0-5" edge="1">
          <mxGeometry width="50" height="50" relative="1" as="geometry">
            <mxPoint x="-30" y="330" as="sourcePoint" />
            <mxPoint x="170" y="260" as="targetPoint" />
          </mxGeometry>
        </mxCell>
        <mxCell id="vV2xrpnyo94VZRR6lylz-3" value="z4, z5" style="edgeLabel;html=1;align=center;verticalAlign=middle;resizable=0;points=[];fontSize=17;fontStyle=3" vertex="1" connectable="0" parent="ZmOYrqovJdzRs6UnG-Y0-19">
          <mxGeometry x="-0.0923" y="2" relative="1" as="geometry">
            <mxPoint x="-9" y="2" as="offset" />
          </mxGeometry>
        </mxCell>
        <mxCell id="vV2xrpnyo94VZRR6lylz-6" value="" style="endArrow=classic;html=1;rounded=0;dashed=1;strokeWidth=2;dashPattern=8 8;entryX=0.5;entryY=0;entryDx=0;entryDy=0;" edge="1" parent="1" target="ZmOYrqovJdzRs6UnG-Y0-3">
          <mxGeometry width="50" height="50" relative="1" as="geometry">
            <mxPoint x="480" y="40" as="sourcePoint" />
            <mxPoint x="632" y="82" as="targetPoint" />
          </mxGeometry>
        </mxCell>
        <mxCell id="vV2xrpnyo94VZRR6lylz-7" value="z7, z8" style="edgeLabel;html=1;align=center;verticalAlign=middle;resizable=0;points=[];fontSize=17;fontStyle=3" vertex="1" connectable="0" parent="vV2xrpnyo94VZRR6lylz-6">
          <mxGeometry x="-0.0681" y="-1" relative="1" as="geometry">
            <mxPoint x="8" y="-7" as="offset" />
          </mxGeometry>
        </mxCell>
        <mxCell id="vV2xrpnyo94VZRR6lylz-8" value="..." style="text;html=1;strokeColor=none;fillColor=none;align=center;verticalAlign=middle;whiteSpace=wrap;rounded=0;fontSize=27;" vertex="1" parent="1">
          <mxGeometry x="480" y="10" width="60" height="30" as="geometry" />
        </mxCell>
        <mxCell id="vV2xrpnyo94VZRR6lylz-16" value="" style="endArrow=classic;html=1;rounded=0;entryX=0.5;entryY=0;entryDx=0;entryDy=0;dashed=1;strokeWidth=2;dashPattern=8 8;" edge="1" parent="1" target="ZmOYrqovJdzRs6UnG-Y0-18">
          <mxGeometry width="50" height="50" relative="1" as="geometry">
            <mxPoint x="-70" y="160" as="sourcePoint" />
            <mxPoint x="-50" y="220" as="targetPoint" />
          </mxGeometry>
        </mxCell>
        <mxCell id="vV2xrpnyo94VZRR6lylz-17" value="z4, z5" style="edgeLabel;html=1;align=center;verticalAlign=middle;resizable=0;points=[];fontSize=17;fontStyle=3" vertex="1" connectable="0" parent="vV2xrpnyo94VZRR6lylz-16">
          <mxGeometry x="-0.0923" y="2" relative="1" as="geometry">
            <mxPoint x="-9" y="2" as="offset" />
          </mxGeometry>
        </mxCell>
        <mxCell id="vV2xrpnyo94VZRR6lylz-18" value="..." style="text;html=1;strokeColor=none;fillColor=none;align=center;verticalAlign=middle;whiteSpace=wrap;rounded=0;fontSize=27;" vertex="1" parent="1">
          <mxGeometry x="-100" y="120" width="60" height="30" as="geometry" />
        </mxCell>
        <mxCell id="vV2xrpnyo94VZRR6lylz-26" value="" style="endArrow=classic;html=1;rounded=0;curved=1;strokeWidth=2;" edge="1" parent="1">
          <mxGeometry width="50" height="50" relative="1" as="geometry">
            <mxPoint x="160" y="280" as="sourcePoint" />
            <mxPoint x="250" y="280" as="targetPoint" />
            <Array as="points" />
          </mxGeometry>
        </mxCell>
        <mxCell id="vV2xrpnyo94VZRR6lylz-27" value="&lt;p style=&quot;line-height: 40%;&quot;&gt;u&lt;sub&gt;S1&lt;br&gt;&lt;font style=&quot;font-size: 16px;&quot;&gt;(nicht z4)&lt;/font&gt;&lt;br&gt;&lt;/sub&gt;&lt;/p&gt;" style="edgeLabel;html=1;align=center;verticalAlign=middle;resizable=0;points=[];fontSize=16;fontStyle=0;fontColor=#0A0202;" vertex="1" connectable="0" parent="vV2xrpnyo94VZRR6lylz-26">
          <mxGeometry x="-0.0222" relative="1" as="geometry">
            <mxPoint x="-2" y="-3" as="offset" />
          </mxGeometry>
        </mxCell>
        <mxCell id="vV2xrpnyo94VZRR6lylz-28" value="" style="endArrow=classic;html=1;rounded=0;exitX=1;exitY=0;exitDx=0;exitDy=0;entryX=0;entryY=1;entryDx=0;entryDy=0;curved=1;strokeWidth=2;" edge="1" parent="1" source="ZmOYrqovJdzRs6UnG-Y0-2" target="ZmOYrqovJdzRs6UnG-Y0-3">
          <mxGeometry width="50" height="50" relative="1" as="geometry">
            <mxPoint x="370" y="190" as="sourcePoint" />
            <mxPoint x="320" y="240" as="targetPoint" />
            <Array as="points">
              <mxPoint x="370" y="240" />
            </Array>
          </mxGeometry>
        </mxCell>
        <mxCell id="vV2xrpnyo94VZRR6lylz-30" value="0" style="edgeLabel;html=1;align=center;verticalAlign=middle;resizable=0;points=[];fontSize=16;" vertex="1" connectable="0" parent="vV2xrpnyo94VZRR6lylz-28">
          <mxGeometry x="-0.2039" y="-11" relative="1" as="geometry">
            <mxPoint x="-5" y="-20" as="offset" />
          </mxGeometry>
        </mxCell>
        <mxCell id="vV2xrpnyo94VZRR6lylz-29" value="" style="endArrow=classic;html=1;rounded=0;exitX=0;exitY=1;exitDx=0;exitDy=0;entryX=1;entryY=0;entryDx=0;entryDy=0;curved=1;strokeWidth=2;" edge="1" parent="1" source="ZmOYrqovJdzRs6UnG-Y0-3" target="ZmOYrqovJdzRs6UnG-Y0-2">
          <mxGeometry width="50" height="50" relative="1" as="geometry">
            <mxPoint x="316.28427124746213" y="250" as="sourcePoint" />
            <mxPoint x="370.28427124746213" y="186" as="targetPoint" />
            <Array as="points">
              <mxPoint x="318.28427124746213" y="198" />
            </Array>
          </mxGeometry>
        </mxCell>
        <mxCell id="vV2xrpnyo94VZRR6lylz-32" value="&lt;span style=&quot;font-size: 16px;&quot;&gt;u&lt;sub&gt;S1&lt;/sub&gt;&lt;/span&gt;" style="edgeLabel;html=1;align=center;verticalAlign=middle;resizable=0;points=[];" vertex="1" connectable="0" parent="vV2xrpnyo94VZRR6lylz-29">
          <mxGeometry x="-0.216" y="-12" relative="1" as="geometry">
            <mxPoint x="2" y="26" as="offset" />
          </mxGeometry>
        </mxCell>
        <mxCell id="vV2xrpnyo94VZRR6lylz-37" value="" style="endArrow=classic;html=1;rounded=1;exitX=1;exitY=0;exitDx=0;exitDy=0;entryX=0;entryY=1;entryDx=0;entryDy=0;curved=0;" edge="1" parent="1" source="ZmOYrqovJdzRs6UnG-Y0-15" target="ZmOYrqovJdzRs6UnG-Y0-18">
          <mxGeometry width="50" height="50" relative="1" as="geometry">
            <mxPoint x="-110" y="310" as="sourcePoint" />
            <mxPoint x="-60" y="260" as="targetPoint" />
            <Array as="points">
              <mxPoint x="-100" y="297" />
            </Array>
          </mxGeometry>
        </mxCell>
        <mxCell id="vV2xrpnyo94VZRR6lylz-38" value="" style="endArrow=classic;html=1;rounded=1;exitX=0;exitY=1;exitDx=0;exitDy=0;entryX=1;entryY=0;entryDx=0;entryDy=0;curved=0;" edge="1" parent="1" source="ZmOYrqovJdzRs6UnG-Y0-18" target="ZmOYrqovJdzRs6UnG-Y0-15">
          <mxGeometry width="50" height="50" relative="1" as="geometry">
            <mxPoint x="-50" y="360" as="sourcePoint" />
            <mxPoint y="310" as="targetPoint" />
            <Array as="points">
              <mxPoint x="-91" y="305" />
            </Array>
          </mxGeometry>
        </mxCell>
        <mxCell id="vV2xrpnyo94VZRR6lylz-39" value="" style="endArrow=classic;html=1;rounded=1;exitX=1;exitY=1;exitDx=0;exitDy=0;entryX=0;entryY=0;entryDx=0;entryDy=0;curved=0;" edge="1" parent="1" source="ZmOYrqovJdzRs6UnG-Y0-17" target="ZmOYrqovJdzRs6UnG-Y0-15">
          <mxGeometry width="50" height="50" relative="1" as="geometry">
            <mxPoint x="-140" y="290" as="sourcePoint" />
            <mxPoint x="-90" y="240" as="targetPoint" />
            <Array as="points">
              <mxPoint x="-134" y="290" />
            </Array>
          </mxGeometry>
        </mxCell>
        <mxCell id="vV2xrpnyo94VZRR6lylz-40" value="" style="endArrow=classic;html=1;rounded=1;exitX=0;exitY=0;exitDx=0;exitDy=0;entryX=1;entryY=1;entryDx=0;entryDy=0;curved=0;" edge="1" parent="1" source="ZmOYrqovJdzRs6UnG-Y0-15" target="ZmOYrqovJdzRs6UnG-Y0-17">
          <mxGeometry width="50" height="50" relative="1" as="geometry">
            <mxPoint x="-240" y="330" as="sourcePoint" />
            <mxPoint x="-190" y="280" as="targetPoint" />
            <Array as="points">
              <mxPoint x="-145" y="298" />
            </Array>
          </mxGeometry>
        </mxCell>
        <mxCell id="vV2xrpnyo94VZRR6lylz-41" value="" style="endArrow=classic;html=1;rounded=1;exitX=1;exitY=0;exitDx=0;exitDy=0;entryX=0.5;entryY=1;entryDx=0;entryDy=0;curved=0;" edge="1" parent="1" source="ZmOYrqovJdzRs6UnG-Y0-16" target="ZmOYrqovJdzRs6UnG-Y0-15">
          <mxGeometry width="50" height="50" relative="1" as="geometry">
            <mxPoint x="-110" y="400" as="sourcePoint" />
            <mxPoint x="-60" y="350" as="targetPoint" />
            <Array as="points">
              <mxPoint x="-124" y="358" />
            </Array>
          </mxGeometry>
        </mxCell>
        <mxCell id="vV2xrpnyo94VZRR6lylz-44" value="" style="endArrow=classic;html=1;rounded=1;exitX=0.5;exitY=1;exitDx=0;exitDy=0;entryX=1;entryY=0;entryDx=0;entryDy=0;curved=0;" edge="1" parent="1" source="ZmOYrqovJdzRs6UnG-Y0-15" target="ZmOYrqovJdzRs6UnG-Y0-16">
          <mxGeometry width="50" height="50" relative="1" as="geometry">
            <mxPoint x="-126" y="376" as="sourcePoint" />
            <mxPoint x="-110" y="350" as="targetPoint" />
            <Array as="points">
              <mxPoint x="-135" y="349" />
            </Array>
          </mxGeometry>
        </mxCell>
        <mxCell id="vV2xrpnyo94VZRR6lylz-45" value="" style="endArrow=classic;html=1;rounded=1;exitX=1;exitY=1;exitDx=0;exitDy=0;entryX=0;entryY=0;entryDx=0;entryDy=0;curved=0;" edge="1" parent="1" source="ZmOYrqovJdzRs6UnG-Y0-9" target="ZmOYrqovJdzRs6UnG-Y0-7">
          <mxGeometry width="50" height="50" relative="1" as="geometry">
            <mxPoint x="680" y="410" as="sourcePoint" />
            <mxPoint x="730" y="360" as="targetPoint" />
            <Array as="points">
              <mxPoint x="666" y="409" />
            </Array>
          </mxGeometry>
        </mxCell>
        <mxCell id="vV2xrpnyo94VZRR6lylz-46" value="" style="endArrow=classic;html=1;rounded=1;exitX=0;exitY=0;exitDx=0;exitDy=0;entryX=1;entryY=1;entryDx=0;entryDy=0;curved=0;" edge="1" parent="1" source="ZmOYrqovJdzRs6UnG-Y0-7" target="ZmOYrqovJdzRs6UnG-Y0-9">
          <mxGeometry width="50" height="50" relative="1" as="geometry">
            <mxPoint x="664" y="414" as="sourcePoint" />
            <mxPoint x="676" y="436" as="targetPoint" />
            <Array as="points">
              <mxPoint x="653" y="420" />
            </Array>
          </mxGeometry>
        </mxCell>
        <mxCell id="vV2xrpnyo94VZRR6lylz-47" value="" style="endArrow=classic;html=1;rounded=1;exitX=1;exitY=0;exitDx=0;exitDy=0;entryX=0;entryY=1;entryDx=0;entryDy=0;curved=0;" edge="1" parent="1" source="ZmOYrqovJdzRs6UnG-Y0-7" target="ZmOYrqovJdzRs6UnG-Y0-10">
          <mxGeometry width="50" height="50" relative="1" as="geometry">
            <mxPoint x="730" y="420" as="sourcePoint" />
            <mxPoint x="780" y="370" as="targetPoint" />
            <Array as="points">
              <mxPoint x="700" y="415" />
            </Array>
          </mxGeometry>
        </mxCell>
        <mxCell id="vV2xrpnyo94VZRR6lylz-48" value="" style="endArrow=classic;html=1;rounded=1;exitX=0;exitY=1;exitDx=0;exitDy=0;entryX=1;entryY=0;entryDx=0;entryDy=0;curved=0;" edge="1" parent="1" source="ZmOYrqovJdzRs6UnG-Y0-10" target="ZmOYrqovJdzRs6UnG-Y0-7">
          <mxGeometry width="50" height="50" relative="1" as="geometry">
            <mxPoint x="740" y="450" as="sourcePoint" />
            <mxPoint x="790" y="400" as="targetPoint" />
            <Array as="points">
              <mxPoint x="707" y="426" />
            </Array>
          </mxGeometry>
        </mxCell>
        <mxCell id="vV2xrpnyo94VZRR6lylz-54" value="" style="endArrow=classic;html=1;rounded=0;entryX=0;entryY=0;entryDx=0;entryDy=0;curved=1;strokeWidth=2;exitX=0.5;exitY=0;exitDx=0;exitDy=0;fontColor=#0A0202;" edge="1" parent="1" source="ZmOYrqovJdzRs6UnG-Y0-5" target="ZmOYrqovJdzRs6UnG-Y0-3">
          <mxGeometry width="50" height="50" relative="1" as="geometry">
            <mxPoint x="150" y="240" as="sourcePoint" />
            <mxPoint x="320" as="targetPoint" />
            <Array as="points">
              <mxPoint x="190" y="50" />
            </Array>
          </mxGeometry>
        </mxCell>
        <mxCell id="vV2xrpnyo94VZRR6lylz-55" value="&lt;p style=&quot;line-height: 80%;&quot;&gt;&lt;font&gt;&lt;span style=&quot;font-size: 17px;&quot;&gt;u&lt;/span&gt;&lt;sub style=&quot;&quot;&gt;&lt;span style=&quot;font-size: 14.1667px;&quot;&gt;r3r1&lt;/span&gt;&lt;span style=&quot;font-size: 11.8056px;&quot;&gt;&lt;br&gt;&lt;/span&gt;&lt;/sub&gt;&lt;/font&gt;&lt;sub style=&quot;&quot;&gt;&lt;font style=&quot;font-size: 16px;&quot;&gt;(nur z4)&lt;/font&gt;&lt;br&gt;&lt;/sub&gt;&lt;/p&gt;" style="edgeLabel;html=1;align=center;verticalAlign=middle;resizable=0;points=[];fontStyle=0;fontColor=#0A0202;" vertex="1" connectable="0" parent="vV2xrpnyo94VZRR6lylz-54">
          <mxGeometry x="0.2561" y="49" relative="1" as="geometry">
            <mxPoint x="-46" y="94" as="offset" />
          </mxGeometry>
        </mxCell>
        <mxCell id="vV2xrpnyo94VZRR6lylz-57" value="" style="endArrow=classic;html=1;rounded=0;dashed=1;strokeWidth=2;dashPattern=8 8;exitX=1;exitY=1;exitDx=0;exitDy=0;" edge="1" parent="1" source="ZmOYrqovJdzRs6UnG-Y0-3">
          <mxGeometry width="50" height="50" relative="1" as="geometry">
            <mxPoint x="590" y="80" as="sourcePoint" />
            <mxPoint x="560" y="260" as="targetPoint" />
          </mxGeometry>
        </mxCell>
        <mxCell id="vV2xrpnyo94VZRR6lylz-58" value="z7, z8" style="edgeLabel;html=1;align=center;verticalAlign=middle;resizable=0;points=[];fontSize=17;fontStyle=3" vertex="1" connectable="0" parent="vV2xrpnyo94VZRR6lylz-57">
          <mxGeometry x="-0.0681" y="-1" relative="1" as="geometry">
            <mxPoint x="8" y="-7" as="offset" />
          </mxGeometry>
        </mxCell>
        <mxCell id="vV2xrpnyo94VZRR6lylz-59" value="..." style="text;html=1;strokeColor=none;fillColor=none;align=center;verticalAlign=middle;whiteSpace=wrap;rounded=0;fontSize=27;" vertex="1" parent="1">
          <mxGeometry x="560" y="240" width="60" height="30" as="geometry" />
        </mxCell>
        <mxCell id="vV2xrpnyo94VZRR6lylz-60" value="F" style="ellipse;whiteSpace=wrap;html=1;aspect=fixed;fontSize=27;fontStyle=1;movable=1;resizable=1;rotatable=1;deletable=1;editable=1;locked=0;connectable=1;" vertex="1" parent="1">
          <mxGeometry x="320" y="370" width="80" height="80" as="geometry" />
        </mxCell>
        <mxCell id="vV2xrpnyo94VZRR6lylz-61" value="" style="endArrow=classic;html=1;rounded=0;exitX=0.5;exitY=1;exitDx=0;exitDy=0;entryX=1;entryY=0;entryDx=0;entryDy=0;curved=1;strokeWidth=2;fillColor=#f8cecc;strokeColor=#b85450;" edge="1" parent="1" source="ZmOYrqovJdzRs6UnG-Y0-3" target="vV2xrpnyo94VZRR6lylz-60">
          <mxGeometry width="50" height="50" relative="1" as="geometry">
            <mxPoint x="460" y="530" as="sourcePoint" />
            <mxPoint x="510" y="480" as="targetPoint" />
            <Array as="points">
              <mxPoint x="420" y="290" />
            </Array>
          </mxGeometry>
        </mxCell>
        <mxCell id="vV2xrpnyo94VZRR6lylz-66" value="0" style="edgeLabel;html=1;align=center;verticalAlign=middle;resizable=0;points=[];fontSize=16;" vertex="1" connectable="0" parent="vV2xrpnyo94VZRR6lylz-61">
          <mxGeometry x="-0.0774" y="-11" relative="1" as="geometry">
            <mxPoint x="-1" as="offset" />
          </mxGeometry>
        </mxCell>
        <mxCell id="vV2xrpnyo94VZRR6lylz-62" value="" style="endArrow=classic;html=1;rounded=0;exitX=0.735;exitY=0.949;exitDx=0;exitDy=0;entryX=0.24;entryY=0.074;entryDx=0;entryDy=0;exitPerimeter=0;entryPerimeter=0;strokeWidth=2;fillColor=#f8cecc;strokeColor=#b85450;" edge="1" parent="1" source="ZmOYrqovJdzRs6UnG-Y0-2" target="vV2xrpnyo94VZRR6lylz-60">
          <mxGeometry width="50" height="50" relative="1" as="geometry">
            <mxPoint x="200" y="450" as="sourcePoint" />
            <mxPoint x="250" y="400" as="targetPoint" />
          </mxGeometry>
        </mxCell>
        <mxCell id="vV2xrpnyo94VZRR6lylz-67" value="0" style="edgeLabel;html=1;align=center;verticalAlign=middle;resizable=0;points=[];fontSize=16;" vertex="1" connectable="0" parent="vV2xrpnyo94VZRR6lylz-62">
          <mxGeometry x="-0.2143" y="1" relative="1" as="geometry">
            <mxPoint as="offset" />
          </mxGeometry>
        </mxCell>
        <mxCell id="vV2xrpnyo94VZRR6lylz-63" value="" style="endArrow=classic;html=1;rounded=0;exitX=1;exitY=1;exitDx=0;exitDy=0;entryX=0;entryY=0.5;entryDx=0;entryDy=0;curved=1;strokeWidth=2;fillColor=#f8cecc;strokeColor=#b85450;" edge="1" parent="1" source="ZmOYrqovJdzRs6UnG-Y0-5" target="vV2xrpnyo94VZRR6lylz-60">
          <mxGeometry width="50" height="50" relative="1" as="geometry">
            <mxPoint x="60" y="510" as="sourcePoint" />
            <mxPoint x="110" y="460" as="targetPoint" />
            <Array as="points">
              <mxPoint x="220" y="380" />
            </Array>
          </mxGeometry>
        </mxCell>
        <mxCell id="vV2xrpnyo94VZRR6lylz-68" value="0" style="edgeLabel;html=1;align=center;verticalAlign=middle;resizable=0;points=[];fontSize=16;" vertex="1" connectable="0" parent="vV2xrpnyo94VZRR6lylz-63">
          <mxGeometry x="-0.1598" y="8" relative="1" as="geometry">
            <mxPoint as="offset" />
          </mxGeometry>
        </mxCell>
        <mxCell id="vV2xrpnyo94VZRR6lylz-64" value="" style="endArrow=classic;html=1;rounded=0;exitX=1;exitY=1;exitDx=0;exitDy=0;entryX=0;entryY=0.5;entryDx=0;entryDy=0;curved=1;strokeWidth=2;strokeColor=#B80404;" edge="1" parent="1" source="vV2xrpnyo94VZRR6lylz-60" target="ZmOYrqovJdzRs6UnG-Y0-7">
          <mxGeometry width="50" height="50" relative="1" as="geometry">
            <mxPoint x="460" y="590" as="sourcePoint" />
            <mxPoint x="510" y="540" as="targetPoint" />
            <Array as="points">
              <mxPoint x="500" y="510" />
            </Array>
          </mxGeometry>
        </mxCell>
        <mxCell id="vV2xrpnyo94VZRR6lylz-65" value="&lt;font style=&quot;font-size: 17px;&quot;&gt;u&lt;sub&gt;S1S3&lt;/sub&gt;&lt;/font&gt;" style="edgeLabel;html=1;align=center;verticalAlign=middle;resizable=0;points=[];fontStyle=0" vertex="1" connectable="0" parent="vV2xrpnyo94VZRR6lylz-64">
          <mxGeometry x="0.0202" y="20" relative="1" as="geometry">
            <mxPoint as="offset" />
          </mxGeometry>
        </mxCell>
      </root>
    </mxGraphModel>
  </diagram>
</mxfile>
